<?xml version="1.0" encoding="UTF-8" standalone="no"?>
<!-- Created with Inkscape (http://www.inkscape.org/) -->

<svg
   width="70.114586mm"
   height="70.114586mm"
   viewBox="0 0 70.114586 70.114586"
   version="1.1"
   id="svg1"
   inkscape:version="1.3 (0e150ed, 2023-07-21)"
   sodipodi:docname="logo.svg"
   xml:space="preserve"
   inkscape:export-filename="saxymofo.dev/src/components/samo.svg"
   inkscape:export-xdpi="96"
   inkscape:export-ydpi="96"
   xmlns:inkscape="http://www.inkscape.org/namespaces/inkscape"
   xmlns:sodipodi="http://sodipodi.sourceforge.net/DTD/sodipodi-0.dtd"
   xmlns:xlink="http://www.w3.org/1999/xlink"
   xmlns="http://www.w3.org/2000/svg"
   xmlns:svg="http://www.w3.org/2000/svg"><sodipodi:namedview
     id="namedview1"
     pagecolor="#ffffff"
     bordercolor="#000000"
     borderopacity="0.25"
     inkscape:showpageshadow="2"
     inkscape:pageopacity="0.0"
     inkscape:pagecheckerboard="0"
     inkscape:deskcolor="#d1d1d1"
     inkscape:document-units="mm"
     inkscape:zoom="0.5495156"
     inkscape:cx="493.16161"
     inkscape:cy="606.89815"
     inkscape:window-width="1632"
     inkscape:window-height="890"
     inkscape:window-x="0"
     inkscape:window-y="25"
     inkscape:window-maximized="0"
     inkscape:current-layer="layer1" /><defs
     id="defs1"><linearGradient
       id="linearGradient3"
       inkscape:collect="always"><stop
         style="stop-color:#800080;stop-opacity:1;"
         offset="0"
         id="stop3" /><stop
         style="stop-color:#f89715;stop-opacity:0.86477989;"
         offset="1"
         id="stop4" /></linearGradient><linearGradient
       inkscape:collect="always"
       xlink:href="#linearGradient3"
       id="linearGradient4"
       x1="21.185326"
       y1="83.96077"
       x2="153.47701"
       y2="83.96077"
       gradientUnits="userSpaceOnUse" /></defs><g
     inkscape:label="Layer 1"
     inkscape:groupmode="layer"
     id="layer1"
     transform="translate(-10.592663,-51.613039)"><g
       id="g18"
       transform="matrix(0.52999998,0,0,0.52999998,-0.63555881,42.171126)"><circle
         style="fill:url(#linearGradient4);stroke-width:0.613739"
         id="path1"
         cx="87.331161"
         cy="83.96077"
         r="66.145836" /><circle
         style="fill:#ffffff;stroke-width:0.552364"
         id="circle4"
         cx="87.331161"
         cy="83.96077"
         inkscape:transform-center-x="-36.256968"
         inkscape:transform-center-y="115.32334"
         r="59.53125" /><text
         xml:space="preserve"
         style="font-style:normal;font-variant:normal;font-weight:normal;font-stretch:normal;font-size:25.4px;font-family:Phosphate;-inkscape-font-specification:'Phosphate, Normal';font-variant-ligatures:normal;font-variant-caps:normal;font-variant-numeric:normal;font-variant-east-asian:normal;fill:#008000;stroke-width:0.265;stroke-dasharray:none"
         x="58.489483"
         y="81.521072"
         id="text1"><tspan
           sodipodi:role="line"
           id="tspan1"
           style="font-style:normal;font-variant:normal;font-weight:normal;font-stretch:normal;font-size:25.4px;font-family:Phosphate;-inkscape-font-specification:'Phosphate, Normal';font-variant-ligatures:normal;font-variant-caps:normal;font-variant-numeric:normal;font-variant-east-asian:normal;fill:#008000;stroke-width:0.265;stroke-dasharray:none"
           x="58.489483"
           y="81.521072">Saxy</tspan><tspan
           sodipodi:role="line"
           style="font-style:normal;font-variant:normal;font-weight:normal;font-stretch:normal;font-size:25.4px;font-family:Phosphate;-inkscape-font-specification:'Phosphate, Normal';font-variant-ligatures:normal;font-variant-caps:normal;font-variant-numeric:normal;font-variant-east-asian:normal;fill:#008000;stroke-width:0.265;stroke-dasharray:none"
           x="58.489483"
           y="113.27107"
           id="tspan5" /></text><text
         xml:space="preserve"
         style="font-style:normal;font-variant:normal;font-weight:normal;font-stretch:normal;font-size:25.4px;font-family:Phosphate;-inkscape-font-specification:'Phosphate, Normal';font-variant-ligatures:normal;font-variant-caps:normal;font-variant-numeric:normal;font-variant-east-asian:normal;fill:#008000;stroke-width:0.264583"
         x="52.888775"
         y="104.01853"
         id="text17"><tspan
           sodipodi:role="line"
           style="font-style:normal;font-variant:normal;font-weight:normal;font-stretch:normal;font-size:25.4px;font-family:Phosphate;-inkscape-font-specification:'Phosphate, Normal';font-variant-ligatures:normal;font-variant-caps:normal;font-variant-numeric:normal;font-variant-east-asian:normal;fill:#008000;stroke-width:0.264583"
           x="52.888775"
           y="104.01853"
           id="tspan17">Mofo</tspan></text></g><g
       id="g1"
       transform="matrix(0.02622919,-0.00997184,0.00808294,0.02126076,25.967668,69.829994)"
       style="fill:#aa4400;fill-opacity:0.685279"
       inkscape:export-filename="saxymofo.dev/src/components/samo.svg"
       inkscape:export-xdpi="96"
       inkscape:export-ydpi="96"><path
         id="path4"
         d="m 18.04,0 h 1.78 c 52.45,8.79 105.32,17.42 157.62,26.33 12.72,-6.38 18.82,5.83 26.5,12.71 7.89,0.27 17.77,1.31 19.56,11.05 11.42,8.37 26.7,8.6 40.01,12.31 4.51,0.92 0.25,9.82 7.22,7.95 21.9,4.09 43.36,10.29 65.16,14.59 4.17,4.3 1.24,13.26 -5.82,10.99 -21.96,-4.75 -42.7,-15.93 -65.52,-16.6 -3.38,3.29 -5.32,7.86 -6.23,12.44 23.6,11.79 50.89,13.33 75.03,23.91 60.42,19.37 126.75,41.81 162.79,97.66 1.01,0.12 2.04,-0.03 3.07,0.06 0.82,15.49 11.53,28.06 13.68,43.4 9.64,0.14 19.66,1.48 29.13,-0.95 -3.14,-23.54 -15.31,-44.3 -25.42,-65.34 -3.33,-7.65 -10.9,2.23 -16.62,0.33 -8.58,2.51 -15.52,-8.53 -11.52,-15.29 8.11,1.52 10.79,-8.38 14.34,-13.64 -5.83,1.21 -9.68,9.42 -15.8,7.14 -5.29,-2.2 -1.2,-8.8 -0.07,-12.61 -7.92,3.62 -13.18,-5.59 -19,-9.37 -17.88,-15.95 -42.34,-18.95 -63.36,-28.84 -5.34,-3.28 -12.42,3.16 -16.86,-1.85 -5.1,-7.8 -16.11,-5.68 -23.17,-10.95 -6.01,-5.12 -11.66,3.39 -18.12,2.32 -4.13,-4.35 -0.57,-9.33 1.57,-13.57 -7.1,-5.99 -10.38,-17.59 -1.63,-23.89 14.77,-8.92 34.35,3 48.14,-8.69 10.07,1.07 12.53,17.25 23.9,17 39.86,10.1 77.34,31.95 106.52,60.72 -0.6,15.5 12.12,2.12 19.32,7.24 10.28,5.38 8.99,17.01 4.1,25.31 14.98,25.83 34.89,53.4 30.41,84.85 1.8,5.67 3.79,12.67 -0.05,17.85 -6.65,5.03 -18.76,7.88 -18.14,17.71 10.5,1.41 16.86,15.06 8.55,22.77 -9.45,5.8 -6.17,18.12 -6.46,27.38 1.32,23.36 -0.7,46.79 0.99,70.21 25.5,13.33 21.43,48.48 23.81,72.59 -0.75,10.69 14.7,4.16 18.86,11.56 2.75,10.23 2.07,23.49 -12.08,20.8 3.18,51.33 5.31,103.14 12.25,154.16 18.59,13.08 29.55,49.85 5.24,61.47 12.13,18.15 20.22,40.52 16.91,62.61 23.55,19.8 27.77,51.71 28.08,80.49 -8.03,6.56 -25.47,5.7 -24.12,-8 -1.63,-13.67 -16.19,-3.3 -23.21,0.01 1.44,6.89 11.33,3.98 16.43,6.71 15.06,6.22 13.73,25.6 12.56,39.37 -3.16,10.8 -15.23,11.6 -24.27,14.38 0.74,5.59 -1.29,16.22 4.34,18.03 -0.67,-18.47 24.2,-13.66 35.77,-8.75 2.13,10.95 2.64,22.42 1.71,33.53 -9.62,7.45 -22.07,10.93 -34.16,8.6 -1.82,10.71 -0.8,23.4 0.75,34.3 11.11,6.2 5.74,25.9 -6.95,24.5 4.56,8 1.51,25.3 14.71,23.5 3.2,-8.9 -9.39,-3.5 -9.46,-10.3 2.63,-4.3 7.5,-4 11.8,-3.9 2.84,-4.7 -0.71,-11.1 1.41,-16.4 5.4,-15.5 -5.03,-33.52 5.1,-47.8 7.22,-5.99 21.13,-3.24 21.81,7.7 1.24,16.2 3.71,33.2 -1.38,48.9 4.64,0.3 4,4.9 4.74,8.1 4.16,29.2 1.54,58.9 0.28,88.2 0.13,15.1 -20.21,6.2 -26.82,12.9 4.82,1.4 9.77,-0.9 14.49,-0.4 6.15,3.8 7.34,13.9 2.42,19.2 2.52,25.4 1.41,51.3 2.58,76.9 7.81,1.9 21.84,-1.5 23.64,9.5 6.7,27.9 3.49,57 5.12,85.5 0.06,3.2 -1.77,8.4 -5.89,5.8 -0.98,-25.7 -0.37,-51.5 -2.2,-77.2 -1.84,0 -5.14,-1.2 -5.13,1.7 -2.93,23.2 3.38,46.5 1.04,69.8 -1.85,0.4 -3.78,0.4 -5.61,-0.1 -0.44,-20.8 -3.88,-41.5 -3.17,-62.4 -2.93,0.1 -6.42,0.2 -8.61,2.4 -0.65,16.6 -1.29,33.4 0.5,49.9 1.06,4.9 1.61,14 -6.43,11.6 -2.71,-5.5 -3.33,-11.4 -3.32,-17.4 -4.61,-3.1 -5.82,3.2 -8.43,5.3 -7.06,0.6 -18.76,-0.3 -17.04,10.5 4.56,-2.2 7.65,-1 8.7,4.1 24.32,-1.8 48.68,8.9 72.58,5.4 4.72,-29.9 10.16,-60.1 17.21,-89.7 15.47,-43.7 25.72,-89.7 48.8,-130.2 -13.13,-9.4 -20.23,-24.3 -28.38,-37.7 -10.96,-21.7 3.52,-54.2 30.9,-49.1 97.95,18.8 192.14,63.5 265.58,130.6 26.7,21.2 51.1,49 61.9,81.8 v 14.7 c -0.5,12.4 -11.6,23.5 -24.3,22.9 -16.1,3.4 -31.3,-4.7 -47.3,-2.5 -8.3,-0.9 -20,-10.2 -25.6,0 -26.35,33 -47.61,69.8 -62.82,109.2 -1.78,13.1 -8.07,25.1 -13.03,37.3 0.22,17.8 -12.4,33.5 -15.32,51.1 -5.19,31.5 -16.7,62.1 -15.39,94.4 -5.4,50.7 -6.2,102 -9.62,153 2.86,13.5 1.33,27.6 0.57,41.3 13.95,13.2 6.89,32.5 3.5,48.4 0.35,59.9 -8.93,121.1 -34.54,176 -8.75,3.5 -9.69,15.2 -16.44,21.1 -32.66,40.1 -82.49,60.7 -132.46,68.4 h -41.59 c -17.37,-2.6 -35.33,-3.6 -51.5,-11.2 -7.79,-5 -16.97,1.1 -25.16,-2.6 -9.02,-1.4 -16.94,-10.5 -26.5,-6.7 -22.7,9 -48.64,-5 -60.38,-24.8 -14.44,-0.7 -26.19,19.5 -41.6,12.9 -5.89,-1.2 -5.45,-9 -3.51,-13.2 11.76,-6.6 25.42,-11 35.58,-20 -1.39,-16.4 -2.76,-33.5 3.14,-49.2 -4.98,-7.1 -10.63,-18.1 -20.84,-12.8 -20.65,8.2 -51.37,-1.4 -52.42,-26.9 -3.02,-38.5 -14.56,-75.4 -20.12,-113.3 4.28,-18.8 29.35,-22.4 44.34,-26.2 -7.77,-12.4 0.71,-27.7 -6.59,-40 7.47,-0.6 7.07,-8.9 9.5,-14.4 1.4,-4.1 7.4,-9.7 0.21,-10.3 -16.51,-1.6 -10.01,-26.6 3.61,-26.9 6.04,0.6 15.67,-7.1 5.47,-8 -0.3,-25.6 -2.62,-51.4 -2.32,-77.2 -3.97,-8.7 -12.3,-1.5 -17.39,1.3 -7.77,-0.1 -20.95,-2 -19.17,-12.6 -0.84,-8.3 10.11,-13.7 4.88,-22.1 -0.66,-4.2 6.77,-18.2 9.49,-9.9 -0.63,6.1 4.37,9.8 10.31,9 -4.24,-29.2 2.09,-62.1 -0.31,-89.6 -4.9,1.6 -8.03,7.1 -7.31,12.2 -0.33,14.5 -0.03,29.4 -5.03,43.3 -3.7,7.9 -18.33,11.8 -21.82,1.6 -3.81,-20 -1.23,-40.6 1.34,-60.6 8.12,-13.9 26.18,-11.5 39.28,-15.6 1.85,-19.2 4.63,-39 0.59,-58.2 -16.07,10.8 -4.67,34.7 -11.03,50.2 -8.57,5.7 -28.24,10.1 -29.98,-4 -2.01,-17.3 -2.13,-36 4.59,-52.2 0.88,-6.5 17.39,-6.8 8.33,-13.5 -7.85,-20.5 -18.54,-47 -2.61,-66.6 -1.57,-13.3 2.31,-30.5 16.15,-36.2 6.96,-1 14.95,-1.2 19.83,-7.1 -0.44,-11.9 -0.94,-23.8 -0.48,-35.6 -13.72,4.4 4.44,30.2 -8.17,37 -6.83,-9.6 0.91,-23.4 -4.33,-33.8 -7.46,0.7 -25.44,2 -23.9,-9.5 6.66,-6.4 16.06,-16 26.34,-10.8 -4.76,-25 0.74,-50.9 -0.92,-76.3 -1.35,-30.4 -0.02,-60.9 -0.81,-91.3 -0.54,-4.1 6.88,-6.5 6.81,-1.5 1.6,26.9 -2.44,53.9 -0.22,80.8 9.53,0.5 3.83,-11.4 4.47,-16.9 0.64,-31.4 -0.83,-62.9 0.16,-94.2 -3.3,-8.3 -12.77,4.3 -13.54,8.8 -1.35,7.4 8.82,2.1 11.56,4.9 0.23,12.4 -21.27,16.4 -23.14,2.8 -6.08,-16.4 20.74,-20.9 15.69,-36.4 -3.52,-20.95 -9.94,-41.38 -12.8,-62.49 0.89,-7.2 7.03,-11.83 12.75,-15.37 0.92,-6.49 1.89,-13 2.3,-19.53 -6.54,-1.95 -11.82,-7.18 -13,-14.03 -3.34,-42.77 5.88,-85.06 3.89,-127.83 -1.68,-18.82 12.44,-35.06 8.57,-53.91 -0.66,-20.54 -0.44,-41.19 -0.21,-61.7 4.28,-7.12 -10.58,-4.91 -6.29,-13.17 1.98,-6.93 12.56,-16.27 3.9,-22.92 -9.21,-6.93 6.42,-14.19 5.1,-22.26 0.21,-5.78 -8.51,-4.56 -8.97,-10 -0.46,-4.28 0.68,-11.36 6.13,-11.45 5.07,10.47 12.37,1.62 19.7,4.69 -2.77,78.9 1.14,159.01 -1.73,238.63 2.27,9.77 -11.35,7.68 -8.98,-0.72 -0.19,-27.86 1.19,-56.07 -0.08,-83.72 -7.78,8.13 -5.28,20.65 -7.81,30.78 0.76,39.1 -5.35,77.78 -4.91,116.86 -1.87,8.78 1.81,20.51 11.86,21.76 -0.52,-18.04 1.27,-36.04 0.32,-54.07 0.06,-9.63 8.51,-4.38 12,-9.09 -8.55,-11.83 13.95,-9.1 21.01,-8.32 2.7,-7.64 2.34,-16.88 0.96,-24.78 -12.28,-1.83 -5.41,12.95 -10.7,19.58 -6.99,3.15 -7.94,-5.75 -7.97,-10.49 3.81,-55.07 0.9,-110.53 2.76,-165.38 -2.87,-2.54 -3.78,-6 0.24,-7.99 -7.46,-6.09 10.99,-22.06 -5.26,-22.68 8.43,-4.8 -1,-13.44 6.15,-18.72 8.58,2.24 8.5,13.16 4.7,19.57 4.31,6.4 -0.16,15.3 1.36,21.06 9.6,0.11 10.47,7.58 0.95,9.35 2.13,20.85 -0.2,41.79 0.55,62.66 -1.2,5.02 3.58,9.35 8.33,7.84 0.68,-30.1 -2.31,-62.9 1.62,-91.8 -13.21,-0.92 -5.41,-16.57 4.13,-8.36 8.98,-18.27 16.55,5.61 11.38,14.26 0.15,6.31 -11.71,3.02 -7.58,9.46 10.58,-5.82 22.63,-0.32 33.81,-2.33 -0.78,-16.72 18.41,-20.81 30.41,-25.7 -1.48,-29.13 -5.75,-58.08 -7.76,-87.18 -9.56,5.62 -20.03,8.96 -30.66,3.16 -3.7,6.94 -7,14.8 -14.56,18.45 -12.23,6.18 1.45,26.77 -11.89,32.29 -2.12,1.95 -6.53,2.41 -7.04,-1.25 -1.82,-13.23 -1.03,-26.67 -1.46,-39.97 -3.88,-2.15 -8.14,-3.57 -12.34,-4.98 4.25,15.85 -5.79,32.5 0.7,47.72 1.53,4.4 -1.37,15.18 -7.66,11.31 -5.01,-2.34 2.34,-6.45 1.18,-10.12 -7.15,-25.82 -2.01,-53.04 -2.98,-79.59 0.83,-11.22 15.72,-12.65 21.54,-19.12 -8.01,3.38 -16.46,-1.34 -24.65,0.24 -2.46,26.43 4.71,54.24 -4.17,79.82 -5.22,6.07 -8.52,-3.62 -7.57,-8.29 2.86,-26.05 0.09,-52.38 1.7,-78.4 6.07,-5.15 16.18,-0.8 23.91,-2.35 -2.22,-7.23 -11.24,-13.18 -18.08,-12.3 -1.96,10.39 -12.38,12.07 -21.18,10.82 -7.34,-7.04 -2.41,-18.82 5.66,-22.74 -3.8,-19.76 4.62,-52.83 30.05,-51.02 0.34,-13.22 -3.95,-27.87 5.46,-38.85 -5.09,-4.07 -6.76,-9.73 -4.51,-15.68 -8.68,-9 -2.9,-25.08 -11.99,-34.93 6.36,-21.91 11.23,-45.09 5.48,-67.71 -4.74,-37.06 -37.56,-63.05 -70.14,-76.47 -34.95,-17.17 -72.41,-28.52 -109.49,-39.82 -18.37,-2.49 -33.76,-15.56 -52.61,-15.27 -8.73,-1.25 -22.75,-12.15 -27.1,-0.44 -7.73,-2.6 -14.59,5.26 -22.18,-0.1 -2.48,9.96 -11.17,6.12 -17.95,4.87 -11.03,12.93 -30.13,11.07 -45.3,15.76 -11.51,3.07 -19.29,-8.71 -20.18,-18.65 -17.04,1.03 -50.13,6.73 -44.96,-21.16 7.28,-6.96 20.29,-5.42 30,-7.09 C 67.3,87.17 41.9,80.89 16.92,75.09 6.68,72.58 -0.53,64.42 0,53.46 V 30.91 C 5.41,20.25 8.25,7.49 18.04,0 m 2.83,16.34 c -3.19,2.77 -8.2,10.85 -1.22,12.02 39.67,11.9 81.7,14.07 121.37,26.46 4.01,-3.02 6.46,-11.31 6.32,-16.33 C 105.03,32.31 63.42,19.79 20.87,16.34 M 159.2,47.03 c -2.88,4.61 -9.01,17.31 -1.65,17.79 0.04,-5.27 11.81,-15.92 1.65,-17.79 m 22.03,5.95 c -2.81,5.85 -12.54,18.07 -0.31,18.92 2.46,-6.41 12.42,-18.02 0.31,-18.92 m 23.64,4.04 c -5.61,9.15 -10.83,19.14 -12.89,29.74 2.24,4.78 9.04,-2.97 13.68,0 3.27,-10.54 20.83,-30.63 -0.79,-29.74 m 22.25,10.35 c -3.87,1.78 -5.45,7.99 -6.02,12.28 7.79,3.58 20,13.86 24.87,1.28 9.7,-10.56 -13.49,-9.75 -18.85,-13.56 m 166.22,1.84 c -6.93,4.67 -8.22,16.32 -4.62,23.67 -7.67,2.01 -3.98,13.32 3.82,9.7 -4.08,-10.32 7.7,-27.27 0.8,-33.37 m -24.7,6.01 c -5.17,2.1 6.87,8.02 7.35,2.7 0.77,-4.1 -5.38,-2.89 -7.35,-2.7 m 57.28,13.93 c 11.25,10.71 31.45,13.6 44.08,24.85 2.64,2.92 15.59,11.34 12.71,2.3 -18.59,-9.7 -35.63,-23.59 -56.79,-27.15 m -209.86,6.88 c -7.64,13.79 16.19,12.92 24.68,11.21 1.05,-12.21 -17.94,-5.6 -24.68,-11.21 m -105.72,4.48 c -12.62,4.94 -26.37,5.27 -39.37,8.74 5.66,13.54 30.5,-0.83 42.61,8.19 3.68,4.41 -1.54,14.85 6.39,14.65 11.62,-2.42 23.43,-3.65 35.06,-5.94 -11.07,-14.4 -26.76,-22.35 -44.69,-25.64 m 92.09,-0.07 c -5,2.17 -14.88,-0.09 -11.19,8.83 3.53,8.5 18.93,-6.78 11.19,-8.83 m 206.95,-0.21 c -2.21,2.74 -4.55,10.96 1.23,11.25 22.79,4.67 44.88,13.61 64.02,26.84 2.99,4.52 13.04,11.06 16.07,6.99 -11.66,-11.41 -26.23,-19.75 -40.51,-27.52 -14.06,-4.77 -25.47,-16.75 -40.81,-17.56 m -156.39,11.2 c -2.59,1.06 1.33,4.68 2.91,5.76 26.12,10.71 54.82,14.78 80.23,27.65 25.89,7.43 52.33,16.41 76.04,30 37.81,14.3 65.45,50.33 71.05,89.96 3.02,-0.27 10.9,-1.58 8.05,-6.02 -6.02,-11.11 -9.51,-23.3 -13.96,-35.06 -12.12,-21.87 -32.47,-36.26 -51.69,-51.39 -55.91,-24.36 -113.38,-46.64 -172.63,-60.9 m 235.65,9.01 c -2.81,10.25 10.55,13.54 15.06,20.07 1.09,11.63 -14.74,4.16 -14.84,15.3 8.16,-1.99 18.62,-10.86 23.37,1.15 7.08,-0.46 2.59,-10.84 -3.11,-7.29 -4.87,-4.08 5.53,-6.74 2.11,-10.77 -6.58,-7.24 -14.11,-13.55 -22.59,-18.46 m 27.3,49.08 c -1.57,0.11 -3.84,0.89 -2.11,2.67 15.69,16.89 25.28,38.43 31.41,60.4 3.01,7.6 7.57,15.73 5.74,24.14 3.35,-0.73 6.29,-2.67 8.8,-4.94 -8.26,-29.58 -21,-58.36 -39.8,-82.55 -1.36,-0.15 -2.72,0.06 -4.04,0.28 m 17.99,1.63 c 12.66,24.94 27.25,49.7 33.4,77.46 6.13,0.9 2.57,-7.75 1.19,-11.11 -12.77,-21.37 -16.27,-48.75 -34.59,-66.35 m 10.42,95.56 c -16.54,0.4 -33.15,-0.09 -49.51,2.81 -6.15,3.68 -21.61,6.28 -10.41,15.05 20.11,-13.25 48.85,-13.22 72.53,-7.98 4.27,-1.97 12.3,-4.41 12.74,-9.32 -8.15,-2.01 -16.98,-0.32 -25.35,-0.56 m -29.53,16.83 c -6.67,2.44 -13.58,4.14 -20.32,6.32 13.42,0.85 27.09,-4.43 40.96,-2.2 2.89,4.07 6.52,-2.61 3.24,-2.88 -7.8,-1.91 -15.94,-1.43 -23.88,-1.24 m -32.67,11.38 c -7.65,12.34 -7.65,29.8 -0.16,39.67 -0.56,-12.36 2.33,-29.21 0.16,-39.67 m 35.13,1.65 c -8.25,3.55 -28.94,-1.28 -26.79,11.76 9.57,-9.33 23.12,-6.75 34.22,-10.18 4.8,2.45 -1.33,14.32 6.49,11.22 8.46,-9.58 -4.86,-16.18 -13.92,-12.8 m 27.25,2.88 c -4.51,0.86 2.62,8.92 -1.33,13.16 9.79,4.47 12.15,-18.23 1.33,-13.16 m 15.91,0.87 c -2.01,3.11 -3.05,13.1 2.18,11.19 1.07,-3.48 0.42,-10.9 -2.18,-11.19 m -8.64,18.77 c -3.39,10.47 0.15,21.7 -1.74,32.35 -3.77,5.1 0.76,7.54 5.51,8.99 -1.13,-12.33 -1.48,-24.67 0.01,-36.98 0.94,-2.56 -1.81,-3.73 -3.78,-4.36 m -53.49,2.89 c -13.78,4.5 -4.01,21.74 -7.39,31.91 -4.32,7.91 11.55,6.81 8.7,0.33 -3.61,-10.51 1.86,-23.24 -1.31,-32.24 m 17.42,1.39 c -8.29,7.22 0.82,24.33 -4.52,35.01 9.58,-4.24 23.45,3.68 31.06,-2.49 -1.24,-8.45 5.92,-25.08 -7.8,-24.01 -4.55,-6.31 -10.62,-10.57 -18.74,-8.51 m 38.84,40.46 c -2.7,4.04 -5.27,10.16 -1.38,14.28 4.49,-1.86 0.95,-10.36 1.38,-14.28 m -43,1.67 c -8.07,1.47 -25.43,-3.46 -19.81,10.32 16.37,-2.27 33.15,0.34 49.57,-1.61 3.26,-0.48 7.1,-7.11 2.32,-7.88 -10.61,-1.41 -21.41,-1.54 -32.08,-0.83 m 36.95,25.06 c -11.78,5.75 -25.91,3.3 -38.64,5.02 4.53,17.11 -2.01,35.78 -2.02,53.25 -8.34,3.28 -15.75,-8.17 -14.11,-16.32 3.03,-11.5 -3.6,-25.6 4.01,-35.65 -2.13,-2.34 -6.59,-3.24 -9.72,-4.76 -1.23,16.71 5.81,38.72 -10.48,50.24 -3.78,10.85 4.97,17.71 15.34,13.95 -4.64,-5.36 2.69,-8.04 6.92,-4.3 11.69,2.36 14.56,15.71 12.63,25.84 -2.07,3.34 -11.31,13.54 -0.45,10.21 2.02,-18.33 24.35,-30.83 41.53,-26.82 0.51,-7.33 -0.81,-15.15 -3.99,-21.8 1.08,-14.32 5.22,-37.63 -1.02,-48.86 m -80.59,25.81 c -7.62,2.03 -8.17,11.36 -3.66,16.78 2.63,6.71 -4.54,19.91 6.27,21.07 -1,-7.67 -4.99,-26.73 6.86,-25.09 3.14,-5.37 -1.52,-17.14 -9.47,-12.76 m 91.3,5.13 c -3.44,7.63 -0.13,12.31 7.57,13.64 12.03,15.72 5.23,38.28 12.29,55.02 -0.07,-22.52 3.19,-57.32 -19.86,-68.66 m -104.35,12.43 c -1.4,4.55 -3.25,21.47 3.12,17.66 0.01,-5.65 1.12,-14.18 -3.12,-17.66 m 104.09,6.03 c 2.99,10.56 -2.35,26.7 10.26,31.95 -2.41,-10.36 0.49,-25.9 -10.26,-31.95 m -99.73,18.22 c -8.43,4.78 2.57,16.62 9.06,9.23 5.75,-5.62 -4.78,-8.42 -9.06,-9.23 m 17.05,2.18 c -1.71,2.18 -1.04,7.46 -3.16,10.57 6.71,2.33 21.63,10.28 21.9,-0.91 2.28,-11.26 -12.32,-7.99 -18.74,-9.66 m 25.03,2.77 c -2.32,4.81 -0.51,13.41 -3.81,19.08 -10.28,-1.51 3.95,11.05 4.04,2.48 5.72,-5.08 8.72,-19.79 -0.23,-21.56 m 35.47,3.26 c -9.08,2.06 -19.44,12.73 -14.04,22.09 16.14,2.88 33.58,-1.06 49.26,4.05 -8.56,-10.47 -17.42,-30.4 -35.22,-26.14 m -87.4,3.09 c -7.7,2.17 -1.51,12 4.21,7.31 5.04,-2.86 -0.5,-7.75 -4.21,-7.31 m 52.22,27.67 c -0.67,3.81 13.88,8.13 13.17,0.26 -4.38,-0.17 -8.78,-0.35 -13.17,-0.26 m 68.99,0.34 c -9.25,1.83 -9.59,13.08 -18.65,15.83 -7.4,2.05 -21.53,-0.24 -21.92,-10.12 0.25,-4.89 8.64,1.42 6.77,-4.2 -5.32,1 -15.73,-4.97 -17.84,2.1 3.52,15.63 24.54,26.12 38.63,17.51 6.06,-5.34 10.79,-15.95 13.01,-21.12 m 12.06,0.93 c -4.85,-2.31 -12.28,4.56 -6.79,8 7.37,0.98 16.16,2.72 23.09,0.77 5.62,-9.8 -10.93,-9.92 -16.3,-8.77 m -88.85,8.02 c -3.23,0.94 -6.13,2.8 -8.83,4.75 5.69,4.43 12.41,0.69 18.57,0.01 2.33,4.32 6.92,5.77 11.49,6.61 -0.49,-10.72 -12.96,-12.31 -21.23,-11.37 m 78.99,10.02 c 3.22,37.89 6.82,75.63 8.58,113.54 9.73,12.61 11.32,29.68 7.79,44.81 -8.29,5.84 7.53,1.78 10.37,0.69 -11.91,-49.95 -9.75,-106.75 -15.63,-158.29 -3.54,-1.37 -7.42,-0.66 -11.11,-0.75 m -89.34,1.8 c -4.86,4.77 3.86,14.05 8.51,8.75 5.23,-3.99 -4.41,-10.48 -8.51,-8.75 m 23.92,0.29 c -6.19,0.1 -10.09,2.03 -6.77,9.63 4.69,7.37 13.38,-6.75 6.77,-9.63 m 7.03,0.2 c 3.25,18.05 -16.42,20.86 -29.44,17.75 12.34,16.3 38.7,-2.65 29.44,-17.75 m 46.37,115.91 c -10.81,1.26 -15.37,11.27 -23.56,15.74 6.12,6.81 30.85,-4.37 32.61,9.41 -10.34,4.78 -23.22,-1.68 -34.56,1.44 -0.48,5.59 7.16,-1.96 7.54,3 3.46,12.41 19.74,16.32 30.36,11.06 16.25,-10.67 7.37,-42.1 -12.39,-40.65 m -105.15,21.86 c -2.46,0.68 -9.81,2.28 -4.29,4.37 3.09,19.2 0.05,39.01 1.91,58.45 -0.42,1.81 3.15,2.71 2.79,0.67 -0.08,-20.89 -0.25,-44.41 -0.41,-63.49 M 510,666.5 c -7.31,20.71 2.44,41.29 -2.02,61.71 4.58,1.04 9.29,0.13 13.86,-0.55 -7.04,-14.12 7.55,-30.43 19.06,-37.77 -4.81,-6.1 -12.81,-12.52 -11.24,-21.96 -6.65,0.6 -13.07,-2.14 -19.66,-1.43 m 72.1,14.93 c -9.6,5.58 8.67,8.42 13.65,8.47 0.92,-8.72 -12.81,-0.91 -13.65,-8.47 m -19.96,8.82 c -18.86,0.25 -35.8,18.49 -32.81,37.7 11.5,1.53 23.43,-0.33 34.66,2.77 1.89,-7.9 10.21,-11.18 15.73,-14.97 -4.91,-3.19 -13.44,-0.03 -19.31,1.6 -0.41,4.06 -6.1,12.2 -9.37,6.52 4.32,-16.84 26.99,-20.54 41.03,-13.81 -4.13,-13.19 -17.18,-18.98 -29.93,-19.81 m 42.09,4.17 c -6.59,0.42 -9.58,6.72 -4.25,11.81 2.15,-2.85 8.28,-10.02 4.25,-11.81 m 10.91,13.47 c -2.79,3.92 -4.71,8.42 -6.31,12.94 5.46,-0.75 9.89,-8.38 6.31,-12.94 m -32.79,16.53 c -4.98,-0.52 -12.01,3.35 -7.78,8.65 -10.58,8.77 10.39,26.57 19.29,15.85 6.14,-8.36 -0.38,-25.34 -11.51,-24.5 m -54.06,11.46 c -0.6,10.54 8.27,16.57 15.23,22.64 1.95,6.6 8.69,9.85 15.14,10.59 -4.05,-7.35 -13.63,-14.42 -11.33,-24.31 0.61,-3.9 7.2,-8.59 8.91,-2.94 2.06,11.38 16.28,25.69 27.85,19.93 -12.66,-0.58 -22.8,-11.06 -21.05,-23.94 -11.54,-0.52 -23.18,-1.07 -34.75,-1.97 m -39.89,0.99 c -1.93,3.74 -2.75,2.61 -5.66,1.18 -3.37,20.28 0.71,40.89 -1.5,61.29 3.01,0.04 5.91,0.89 8.47,2.52 -0.6,-21.25 2.52,-46.18 -1.31,-64.99 m 23.44,8.61 c -14.33,3.44 -2.11,24.18 -5.38,35.16 26.04,6.92 24.85,46.56 4.47,59.46 17.19,1.44 37.01,5.31 54.89,2.53 -1.51,-6.82 4.29,-12.09 4.94,-18.42 -7.82,-1.25 -15.25,-5.26 -18,-13.02 -2.3,-5.28 -5.9,1.69 -8.44,3.1 -10.54,5.45 -4.73,23.73 -19.26,24.37 -0.09,-14.85 10.27,-27.51 21.56,-36.05 5.05,-2.64 8.27,-13.83 0.62,-14.95 -14.57,-3.49 -26,-17.65 -26.04,-32.7 -1.99,-3.81 -3.96,-11.09 -9.36,-9.48 m 93.33,2.42 c -4.88,11.67 1,28.83 -14.03,35.32 4.94,10.18 4.17,21.62 0.53,31.96 14.14,-0.5 24.29,13.99 20.53,27.44 19.66,9.27 -2.4,-21.95 12.8,-26.63 6.35,0.73 5.99,10.29 11.87,10.94 -2.26,-11.46 -12.57,-18.97 -21.5,-25.37 -6.34,-17.07 -3.42,-36.91 -10.2,-53.66 m -34.9,35.5 c -23.01,1.02 -9.44,39.98 8.75,28.67 16.66,-3.48 4.65,-29.58 -8.75,-28.67 m -69.85,4.04 c -1.01,6.58 -4.45,19.04 5.62,19.17 3.26,-0.18 9.16,-8.56 9.98,-1.5 2.68,10.93 -10.23,11.44 -16.79,13.18 -0.66,7.57 12.46,4.04 15.47,0.48 8.54,-11.59 -0.33,-30.14 -14.28,-31.33 m 86.01,36.1 c -4.37,1.26 -11.09,1.84 -12.12,7.24 -3.6,14.54 12.45,24.49 25.19,24.1 14.28,-8.77 0.87,-32.05 -13.07,-31.34 m 55.64,20.39 c -4.73,3.08 2.07,6.15 -0.14,10.07 0.41,3.62 -2.23,15 4.64,13.53 -0.82,-7.62 0.77,-18.3 -4.5,-23.6 m -171.57,3.51 c -1.1,7.6 8.27,4.13 11.46,7.88 -0.6,6.1 1.19,16.76 -8.73,14.09 -0.35,9.62 0.17,19.35 0.23,28.96 6.42,1.36 12.86,-3.16 19.27,-4.36 -7.43,-13.96 -0.56,-30.73 -3.23,-45.9 -6.33,-0.3 -12.68,-0.43 -19,-0.67 m 148.73,3 c 1.66,6.52 -10.35,-0.31 -7.69,6 3.36,7.07 15.68,-4.44 7.69,-6 m -113.97,6.81 c -1.43,6.27 -2.38,15.75 1.2,22.23 11.01,-0.84 22.68,-0.18 33.37,-3.52 -6.49,-3 -11.15,-9.03 -14.14,-15.74 -6.45,-2.37 -13.6,-2.75 -20.43,-2.97 m 44.13,1.34 c -15.72,-3.8 -8.32,11.05 1.45,12.28 9.45,-1.87 11.57,-17.09 -1.45,-12.28 m 22.74,1.62 c -8.41,23.67 -42.14,20.27 -57.94,27.71 17.71,3.42 39.95,-3.2 55.7,-13.99 3.61,-4.01 11.45,-11.67 2.24,-13.72 m 23.18,6.11 c -8.6,0.89 -11.05,11.56 -8.37,18.51 3.28,10.68 8.73,-4.04 13.27,-5.82 1.28,-3.75 -0.93,-12.16 -4.9,-12.69 m -21.76,15.07 c -10.87,6.37 -22.77,12.51 -35.74,12.07 -1.51,0.16 -5.3,-0.03 -3.41,2.34 15.15,1.62 30.47,-0.28 45.56,2.27 -3.36,-5.26 0.76,-18.49 -6.41,-16.68 m 33.27,-0.16 c -17.51,10.29 -0.96,39.58 16.51,37.19 17.48,-10.64 3.36,-42.33 -16.51,-37.19 m -105.12,2.93 c -3.72,16.39 15.4,-3.91 0,0 m -15.46,18.25 c 3.67,11.19 -5.86,12.37 -13.11,15.8 1.58,12.28 -0.35,24.65 0.74,36.98 4.12,0.78 10.8,-1.65 12.2,3.74 -1.52,5.39 -7.58,5.1 -11.98,6.39 -0.45,7.06 -0.19,14.29 0.95,21.31 13.08,-4.29 12.67,22.57 -0.12,17.77 -0.33,5.4 -1.51,14.9 1.81,18.2 7.26,-5.3 24.26,3.3 23.25,-8.6 8.57,-1.1 17.38,-14.33 5.86,-17.91 -12.26,-5.58 0.53,18.01 -12.51,15.31 -5.23,-4.6 -3.69,-11 -3.8,-17.05 2.61,-27.29 -4.32,-55.64 2.61,-82.27 13.68,-5.59 1.49,19.68 11.31,18.69 5.39,-7.82 -3.43,-17.72 -0.76,-26.65 -5.56,0.16 -10.93,-2.33 -16.45,-1.71 m 67.32,9.25 c -12.94,1.34 -25.92,3.63 -38.83,0.96 0.67,8.55 1.86,19.78 -7.05,24.48 -2.06,6.68 -0.12,14.42 -4.42,20.68 7.2,-0.85 14.17,-0.32 21.44,-0.14 -6.41,-26.69 22.17,-39.73 41.84,-46.16 -4.32,-0.52 -8.67,-0.12 -12.98,0.18 m 15.16,-0.31 c -3.18,0.28 13.49,7.63 15.32,1.78 -4.88,-1.73 -10.18,-2.38 -15.32,-1.78 m -118.67,9.2 c 2.71,6.72 2.31,14.02 2.34,21.14 3.05,-5.45 6.07,-18.29 -2.34,-21.14 m 116.03,5.19 c -12.51,0.16 -26.14,4.22 -28.9,18.55 1.41,4.94 -8.56,15.29 1.91,14.17 22.06,-0.95 45.86,5.45 66.38,-0.91 2.34,2.27 -0.15,8.34 4.35,8.35 4.41,-1.67 5.03,-7.84 9.17,-10.12 5.72,2.86 2.01,11.59 7.84,14.43 4.86,7.97 23.71,4.54 18.64,-6.54 -0.34,-6.59 1.08,-13.21 0.21,-19.78 -5.99,-2.93 -13.34,-1.37 -19.72,-1.47 -0.07,14.88 -16.71,11.84 -25.7,8.36 -0.56,-17.72 -19.77,-23.84 -34.18,-25.04 m -120.38,22.5 c -11.14,8.02 4.63,10.14 9.32,3.83 0.01,-4.03 -6.45,-4.75 -9.32,-3.83 m 0.85,15.86 c -1.97,10.5 3.63,23.29 7.45,32.79 -1.77,-10.7 8.98,-34.3 -7.45,-32.79 m 93.18,3.07 c -6.68,7.48 4.86,14.12 8.2,19.88 13.95,14.95 39.32,10.94 50.28,-5.3 0.02,-4.47 4.69,-13.56 -2.65,-13.42 -18.65,0.63 -37.21,-1.09 -55.83,-1.16 m -39.47,4.44 c -0.15,3.45 -0.45,10.35 -0.6,13.81 10.1,-3.01 25.42,4.65 21.7,16.78 -0.51,7 -7.96,9.7 -11.44,14.9 1.56,2.6 10.16,2.7 6.27,8 -6.43,9.7 8.21,32.6 -8.28,33 -8.96,3.4 -4.65,-10.4 -7.19,-15.5 -1.23,3.8 -0.37,8.4 -1.93,12.4 -14.31,2.2 -5.35,-17.4 -10,-23.8 -4.6,-0.6 -9.28,-0.7 -13.91,-0.8 -0.18,33.7 -0.62,67.4 -0.13,101 2.48,3 8.75,5.3 7.52,9.8 -5.99,4.3 5.92,3.4 7.8,4.6 3.73,0 13.06,8.2 12.91,0.5 -2.38,-5.2 -10.32,-2.1 -13.74,-5.6 3.14,-20.7 -0.08,-42.1 1.24,-62.9 -0.27,-15.9 23.47,-9.2 30.18,-13.2 -2.38,-20.3 15.27,-38.2 31.36,-49.5 -10.42,-11.4 -25.63,-21.69 -25.33,-38.81 -6.84,-3.49 -22.91,1.06 -26.43,-4.68 m 109.91,3.66 c 0.8,10.92 -13.05,33.53 1.63,38.63 0.71,-12.3 2.36,-29.31 -1.63,-38.63 m 35.84,13.94 c -0.21,15.09 2.12,35.49 -1.95,51.99 8.57,-1.6 8.61,-11.1 8.55,-18 -2.29,-9.9 5.45,-30.14 -6.6,-33.99 m -49.58,11.89 c -6.2,2.1 -2.53,9.4 -1.3,13.7 6.11,5.4 6.32,-14.4 1.3,-13.7 m -28.95,19.4 c -15.18,1.2 -30.87,13 -32.86,28.7 0.61,5.3 3.43,13.7 -3.32,16.3 -1.69,1.5 -7.61,-2 -5.76,1.3 23.76,3.4 47.99,2.7 71.93,2.9 4.32,-1.3 13.89,4.4 7.46,8.3 -23.48,2.3 -47.2,-1.5 -70.77,-0.2 6.97,14.4 16.51,31.2 34.05,33 13.9,4.9 30.43,0.4 39.27,-11.4 23.02,-28.9 -1.33,-82 -40,-78.9 m 39.78,0.9 c -3.54,4.6 5.26,10.9 8.67,13.9 7.32,-8.2 0.57,-15.5 -8.67,-13.9 m 38.9,27.9 c -1.56,0.3 -4.41,0.4 -3.9,2.7 0.26,16.3 3.97,32.9 -0.16,49.1 -1.98,3.6 -7.09,-0.3 -9.65,2.2 -13.28,3.6 0.65,31.3 -16.37,22.9 -0.23,5 -3.79,25.5 5.39,21.2 -5.97,-18 14.18,-26 27.46,-23.2 2.8,9.7 -16.6,2.9 -16.96,11.6 7.18,4.5 17.79,6.1 24.78,0.8 2.29,-9.9 -7.71,-12.1 -4.75,-22.7 0.47,-20.6 -4.62,-41 -3.47,-61.6 -0.12,-1.5 -0.36,-3.9 -2.37,-3 m 117.63,4.1 c -4.55,1.8 -10.05,3.6 -12.83,7.8 -3.52,22 10.73,41.5 25.8,56 34.88,35.7 77.78,62.8 118.02,92 41.62,21.6 81.7,49 126.82,64.1 -2.4,-3.2 -0.6,-8.9 4,-6.9 11,6.2 22,-3.8 33.4,-3.2 8.7,-3.2 15.4,-11.2 25,-12 6.6,1.4 -1.6,14.9 4.4,14.3 6.5,-28.3 -21.2,-46.2 -36.6,-65.3 -55.28,-53.1 -123.86,-89.5 -192.33,-122.7 -31.51,-9.1 -62.11,-25.6 -95.68,-24.1 m -137.69,16 c -5.57,1.7 5.4,7.1 2.93,11.4 4.46,2.6 3.63,-12.6 -2.93,-11.4 m -125.87,5.5 c -0.4,20.2 0.69,40.3 0.01,60.5 -0.06,2.3 5.39,2.4 4.45,-0.4 -1.53,-16.1 1.31,-29.9 0.36,-47.9 -0.68,-3.9 2.07,-13.8 -4.82,-12.2 m 14.3,6.9 c -2.6,36.3 -2.34,73.2 1.55,109.3 2.19,13.5 1.94,27.8 0.86,41.1 6,5.8 0.7,16.4 -7.55,14.4 -4.67,5.4 -17.36,10.2 -18.85,-0.2 -2.44,-25 -0.19,-50.4 -0.43,-75.5 2.26,-6.5 -4.12,-6.3 -8.2,-6.8 -0.74,32.5 0.97,65.1 -0.14,97.5 32.71,-4.4 66.72,-0.7 99.33,-0.5 -1.58,-2.9 -2.41,-7.6 -7.07,-5.5 -22,1 -35.8,-19.9 -42.9,-38 3.55,-20.6 -0.53,-43.6 13.12,-61.3 11.96,-10.3 29.26,-14.6 43.8,-6.5 5.37,-4.7 0.19,-12.5 1.85,-18.6 -29.55,9.5 -60.62,-15.8 -65.35,-44.8 -0.37,-5 -6,-8.8 -10.02,-4.6 m 86.8,38.3 c -3.15,7.4 -0.32,18.4 0.04,27.3 7.4,-2.3 1.61,-12 3.31,-17.6 -0.29,-3.1 1.31,-10 -3.35,-9.7 M 463.98,1137 c -5.59,6.5 6.39,13 10,6.1 -1.74,-3.2 -7.92,-2.2 -10,-6.1 m 311.44,1.3 c -1.99,7.1 -6.78,14.1 -7.15,21.5 8.43,0 15.02,4.2 21.8,8.3 4.83,4.5 -3.74,12.5 4.41,14.2 0.13,9.1 -11.47,-1.5 -14.74,6.5 -6.98,16.4 -10.53,34.3 -16.4,51.3 -4.27,-1.3 -3.87,11.4 -9.68,14.4 -3.5,16.3 -4.92,34.3 -12.46,49.6 -0.82,15.8 -3.97,33.1 -5.02,49.2 -7.93,-23.7 0.74,-48.4 2.83,-72.3 6.13,-29 16.91,-56.8 28.77,-84 7.58,0 4.34,-15.9 12.17,-21.2 -3.27,-5.8 -14.95,-0.7 -19.81,2.4 -34.1,81.1 -48.32,169.7 -49.85,257.4 11.52,2.3 23,-6.7 34.31,-2.4 2.94,8.4 10.27,-1.2 14.35,-3.4 -3.82,-5.1 -12.99,-5.1 -15.33,-11.4 7.2,3.7 6.44,-0.7 2.57,-4.6 7.42,-6.1 4.72,9.8 9.94,2.1 5.76,5.6 15.6,9.7 13.32,19.4 -11.7,0 -19.85,10.3 -29.58,15.4 -3.92,0.3 -4.14,-4 -3.38,-6.9 -4.36,0.4 -10.44,-0.2 -13.28,1.9 4.91,9.3 16.47,14.5 20.2,24.9 7.15,20.9 17.79,43.1 11.35,65.2 -3.81,0.4 -7.58,-0.8 -10.62,-3 4.27,-18.6 -4.28,-36.5 -11.47,-52.9 -7.43,14.9 11.55,24.2 4.69,39.3 1.09,7.2 2.66,21.9 -6.69,22.5 -9.95,-8.4 -25.97,-2.1 -34.02,-13.5 -0.25,-23.1 -3.64,-46.6 3.81,-69 10.63,-0.8 21.92,12.7 16.49,22.9 0.01,8.8 -6.7,24.7 4.71,27.8 -2.41,-17.3 7.92,-48.2 -12.57,-61.8 -28.58,12.8 -12.55,51.4 -21.29,76.7 -2.27,0.2 -7.48,0.4 -7.74,-3.1 1.21,-23 2.02,-46.1 6.92,-68.7 -24.15,11.6 -16.77,45.5 -20.59,67.6 4.35,3.6 7.97,8 11.9,11.9 17.43,4 34.38,10.2 51.03,16.3 20.84,-2.6 42.68,-6 62.29,-12.2 4.78,-37 10.28,-74.3 19.4,-110.5 0.76,-6.5 9.73,-6.1 5.5,0.3 -2.94,36.6 -13.88,72.5 -19.62,109 3.09,-0.4 7.37,1.3 9.7,-0.3 2.9,-29 4.15,-58 11.09,-86.4 1.27,-5.7 2.32,-13.4 7.4,-16.7 2.28,14.7 -0.8,30.2 -4.51,44.6 -6.51,30.7 -8.9,62.4 -10.52,93.9 -9.81,-1.9 0.45,-18.5 -4.76,-22.2 -14.47,4.3 -27.06,12.8 -42.27,15.7 -5.4,11.8 -8.24,26.7 -19.82,35.3 7.37,6.4 28.87,6.5 23.99,21.9 -7.64,8.2 -16.6,21.9 -29.87,16.6 -4.85,-10.1 14.69,-14.1 16.92,-20.1 -4.93,-2.7 -10.36,-4.2 -15.42,-6.6 2.61,3.1 5.27,10.4 -1.44,9.6 -18.81,-2.6 -43.22,9.1 -56.94,-8.2 -7.14,-10 2.35,-26.1 -10.1,-32.5 -15.32,5.7 -33.48,11.4 -50.85,11.3 -9.05,-3.9 5.34,-9.1 9.35,-8.5 -0.82,-13.5 -8.9,-24.5 -14.23,-36.4 -20.25,-23.9 -59.94,-5 -62.16,23.3 1.18,13.6 0.74,27.9 5.99,40.8 11.41,23.7 47.12,34 64.58,11.5 -4.26,-5.7 -9.86,-10.2 -15.04,-15 -7.45,10.6 -25.85,12 -35.02,3 -8.74,-17.7 -2.33,-48.7 21.95,-47.8 10.82,1.2 16.28,14.9 15.78,24.5 -10.6,2.3 -11.59,-10.8 -17.73,-15.9 -22.46,-6.9 -14.84,42.6 4.31,34.6 6.48,-3 6.74,-14.9 15.14,-12.8 1.98,3.6 -3.87,6.4 -1.34,10.1 8.1,-5.1 13.41,5.5 18.96,9.8 15.59,1.5 27.9,-10.5 42.76,-12.3 1.15,0.9 2.43,2.1 2.25,3.8 -6.63,14 -2.19,30 -3.84,44.8 1.18,5.3 3.69,12.8 10.61,11 2.19,-9.4 -1.44,-19.8 3.37,-28.6 3.98,-6.1 12.01,3.8 8.39,8.3 -0.95,28.5 4.31,57.3 -0.27,85.8 -1.87,17 -3.1,34.3 -2.07,51.3 4.84,2.2 8.2,7.2 13.89,7.4 20.44,2.3 41.41,6.5 61.88,3.7 -2.74,-31.1 -1.66,-62.5 1.77,-93.5 -1.03,-12.6 4,-26.6 -3.25,-38 6.83,2 -1.18,-16.8 7.74,-12.5 4.8,19.1 0.34,37.3 1.23,56.9 -2.61,10 3.86,25.8 -4.3,33 1.12,18 -1.14,36.5 3.11,54.1 24.07,2 48.29,-2.8 72.39,-2.2 0.43,-3.1 -1.68,-4.5 -3.93,-5.7 -1.96,-38.9 -0.83,-76.6 2.23,-115.7 -1.42,-92.4 10.19,-186.4 43.18,-273.9 16.1,-33.4 21.33,-72.7 41.65,-103.6 3.33,-6.4 9.69,-18.5 15.12,-26.7 -4.67,-3.1 -11.45,-8.8 -17.13,-4.1 -16.09,31 -28.42,62.8 -40.89,95.2 -1.94,-11 -8.11,6.4 -9.43,-2.8 0.95,-6.6 10.54,-1.3 11.02,-7.9 0.54,-3 2.18,-11.7 -2.53,-9.4 2.98,-18.9 15.55,-35.4 20.95,-53.9 1.11,-10 15.25,-9.2 16.03,-19.2 0.78,-16.4 -15.69,-23.6 -27.85,-29.9 -18.51,-15.7 -39.94,-28.5 -55.69,-47.3 -4.23,0.9 -6.81,-1.9 -8.25,-5.6 -9.06,-1.8 -20.36,-9.7 -23.14,-16.1 -11.49,-4.2 -25.79,-10.1 -31.61,-20.6 m -208.94,14.1 c -38.18,11.6 -25.69,75.2 7.96,83.9 11.37,0.2 3.11,-16.9 8.19,-23.6 -5.16,-3.4 -15.63,3.5 -21.82,-0.5 0.33,-6 -11.21,-3.2 -6.99,-9.2 29.94,-9.3 61.77,-11.5 92.48,-17.7 1.63,-0.1 1.76,-1.6 1.86,-2.8 -10.74,-0.2 -21.62,-0.2 -32.13,2.2 -6.16,-2.7 -12.63,-4.6 -19.21,-4.7 -2.15,-15 -15.31,-26.8 -30.34,-27.6 m 37.59,4.2 c -9.89,-2 -5.77,4.7 -2.77,9.2 15.12,-7.3 31.98,-0.7 47.66,-2.9 -0.11,-3.3 -2.08,-7.1 -5.89,-6.5 -12.91,3.4 -25.97,-2.5 -39,0.2 m -132.72,5.8 c -3.51,1.3 -11.66,0.7 -8,6 0.97,40.7 0.17,82.5 0.53,122.7 2.01,1.8 4.46,3.2 7.17,3.5 2.43,-44.1 -1.18,-88.4 1.98,-132.6 -0.42,0.1 -1.26,0.3 -1.68,0.4 m -21.73,2.6 c -1.11,22.9 1.89,46 0.28,68.7 -6.24,3.2 4.18,8.8 -2.82,10.2 -5.56,1.9 6.99,2 7.59,1.7 0.64,-26.3 1.18,-52.6 0.06,-78.9 -1.64,-0.8 -3.37,-1.3 -5.11,-1.7 m 50.47,1.2 c -0.36,7.3 -0.21,14.5 -0.02,21.8 1.29,-5.6 2.63,-18.2 0.02,-21.8 m 125.95,38 c 0.06,14.6 1.44,29.2 0.17,43.8 1.62,0 4.13,0.7 4.2,-1.7 2.68,-12.4 -0.46,-24.9 -0.29,-37.4 2.84,-5.7 -1.52,-4.7 -4.08,-4.7 m 19.32,0.1 c -18.27,1.6 -4.86,24.9 -8.35,36.5 -2.52,11.8 14.78,5 12.97,-3.1 -1.91,-9.3 2.95,-27.5 -4.62,-33.4 m -33.27,2.1 c -3.92,1.4 -9.97,0.1 -12.89,2.6 8.88,17.7 2.02,40.2 1.52,58.4 9.12,8.6 6.82,-11.3 18.03,-6.3 16.93,4 33.96,-0.4 50.99,-0.5 3.78,0.1 2.24,-5.6 -0.53,-6 -12.04,-4 -24.92,-1.4 -37.31,-1.2 -5.59,0 -10.43,7.7 -15.78,4.3 -3.99,-15.5 1.19,-38.1 -4.03,-51.3 m -22.23,10.6 c -5.2,13.2 6.17,37.2 -8.76,44.1 7.63,14.9 -18.8,1.3 -16.49,14.6 -15.56,8.1 -22,31.5 -15.94,46.4 4.71,-10.1 13.1,4 20.43,-0.8 25.45,-8 54.51,-5.6 77.97,-18.8 -3.31,-8.4 3.82,-31.6 -10.82,-28.8 -0.95,8.3 2.35,17.3 -0.6,25.2 -14.07,3 -2.55,-24.6 -16.71,-17.9 -2.66,6 10.53,23.4 -3.44,22.7 -4.64,-8.6 -6.01,-21.1 -15.51,-26.7 -4.46,-1.9 -5.23,-6.2 -3.76,-10.1 -2.39,-16.2 1.61,-32.6 -0.82,-48.9 -0.64,-3.5 -5.46,-6.3 -5.55,-1 m -84.47,5.6 c -0.24,3.1 -3.59,12.6 1.43,12.2 1.28,-3.4 0.4,-11.7 -1.43,-12.2 m -71.05,18.5 c -7.11,6 3.76,7.6 8.74,5.2 -2.18,-2.6 -5.2,-5.5 -8.74,-5.2 m 520.89,17.1 c 2.26,6 -5.92,10 -5.5,17.5 3.42,-4.9 7.52,3 11.16,-3.8 -3.67,-4.7 3.03,-13 -5.66,-13.7 m -471.16,8.9 c 1.63,7.1 10.84,2.5 15.38,6.1 8.39,-0.2 9.82,11 8.96,17.6 13.12,6.8 2.66,-15.1 1.58,-20.8 -7.22,-3.8 -17.45,-1.8 -25.92,-2.9 m 50.82,10.2 c -6.8,0.3 -0.92,9.3 -3.49,12.8 -2.41,15.4 -22.48,15 -33.32,8.7 -4.21,-5.5 7.35,-9.3 3.11,-15.7 -1.91,6.5 -8.63,4.8 -11.49,0 -9.02,-5.2 -9.34,10.4 -1.59,11.9 11.52,4.5 10.8,18.3 10.81,28.7 5.08,-14.3 14.91,11.7 9.19,18.3 -5.28,5.2 3.31,7.5 2.63,12.9 -4.18,16.6 -30.6,30.1 -41.05,11.5 -16.31,2.3 -0.18,30.1 -10.59,39.6 13.5,23.8 1.27,52.9 8.65,77.5 -0.57,3.4 -6.03,4.5 -6.25,7.2 2.77,6.5 10.92,-0.5 14.43,4.5 5.96,22.4 2.1,45.7 1.46,68.5 2.93,7.7 3.29,20.7 -8.21,20.3 -0.5,3.1 -1.19,6.2 -2.8,9.1 13.02,0.7 22.11,10.7 33.06,16.5 13.62,9 26.64,25.3 21.23,42.6 -6.28,6.6 -8.73,17.8 -18.95,19.4 -9.29,-0.4 -18.2,-4 -26.81,-7.2 -0.02,7.3 -0.18,15.4 1.58,22.2 14.52,-0.8 22.61,13.8 24.16,25.9 -11.11,9.5 13.8,7.5 15.41,16.5 8.1,19.1 25.54,41.2 12.82,60.3 11.37,0.8 23.05,1.8 34.23,-1 -5.41,-9.8 -16.48,-15.3 -20.24,-26.1 -10.39,-25.8 -8.62,-55.7 0.95,-81.4 7.69,-5 12.12,-13.6 20.11,-18.6 -9.6,-5.1 2.08,-15.1 4.87,-19.9 -14.93,-8.5 -19.24,-26.7 -33.63,-35.4 -9.71,-8.5 -8.34,-25.8 0.94,-34.1 7.07,3.6 0.35,15.4 4.81,20.2 0.78,-13.9 1.21,-28 7.26,-40.8 -16,9.4 -44.02,4.3 -39.89,-19.2 -13.64,-23.7 19.3,-59.4 40.09,-37.2 3.63,0 9,-2.8 9.59,-6.6 -9.2,-8 -13.88,-21.2 -10.33,-33.2 -7.4,-23.9 -9.4,-55 10.23,-74.2 1.26,-1.8 5.66,-3.5 3.53,-6.2 -14.3,-3.9 -24.34,-16.7 -28.28,-30.6 -6.72,-12.8 -8.59,-32.6 3.83,-42.3 2.25,-7.8 4.64,-15.6 9.77,-22 4.26,-7 -8.79,-2.7 -11.83,-3.4 m 543.71,1.1 c -11.6,3.5 -24.1,1.2 -36,0.5 8.8,5.7 22.7,5.5 33,3.9 3.3,0.1 9.5,-6.7 3,-4.4 m -102.94,9.1 c -17.25,6.3 -26.32,24.9 -35.26,39.7 -0.45,6.9 9.8,-4.5 8.5,3.8 -4.9,7 -10.03,14.5 -15.71,21.2 -2.02,1.9 -2.45,-2 -3.09,-3.2 -8.2,15.8 -13.76,31.3 -19.63,47.9 3.29,2.1 2.34,5 -1.4,2.6 -1.28,8 -9.56,14.3 -6.28,22 -8.81,6.4 -3.87,18.1 -11.86,25.4 -31.4,108.6 -26.88,221.8 -30.23,336.1 4.53,-3.6 14.09,-1.9 14.29,-9.3 2.1,-55.2 3.26,-109.9 7.66,-165 0.92,-70.1 18.58,-138.8 44.4,-203.7 12.2,-37.5 30.6,-72.6 50.47,-106.5 5.8,-4.3 9.5,-14.5 -1.86,-11 m -519.3,11.7 c -8.38,6.4 7.32,10.6 9.38,4 -2.07,-2.2 -6.11,-4.3 -9.38,-4 m 19.96,4.9 c -9.25,7.6 3.53,19.4 11.31,12.3 1.6,-6.6 -5.11,-12.3 -11.31,-12.3 m -31.18,6 c -1.46,6.8 2.34,18 1.53,26 5.04,-5.2 11.92,-7.3 18.26,-10.3 2.32,-14.5 -13.01,-9 -19.79,-15.7 m -11.4,2.3 c 5.35,21.3 1.29,51.3 3.82,72.1 6.3,-22.3 0.99,-47.5 0.73,-70.8 0.42,-2.7 -2.99,-1.1 -4.55,-1.3 m 177.35,11 c -13.66,3.3 -27.69,3.2 -41.36,6.4 -7.86,-1 -16.05,5.3 -22.01,-1.6 2.23,19.1 22.2,36.4 41.75,32 7.95,-6.6 17.67,-11.9 22.77,-21.1 -0.21,-4.3 7.17,-16.5 -1.15,-15.7 m -122.21,5.1 c -3.97,3.2 2.51,12.1 -1.15,17.3 8.13,-0.4 11.3,-20.3 1.15,-17.3 m -12.71,2.3 c 2.04,5.1 0.47,12.5 3.6,16.5 3.12,-4.9 4.76,-17.6 -3.6,-16.5 m -46.81,2.5 c -19.15,14.8 -2.5,39.2 1.44,55.4 3.1,-16.6 0.41,-40.4 -1.44,-55.4 m 26.87,0.9 c -5.94,7.3 4.65,13.6 11.35,10.7 3.22,-7.9 -5.07,-11.5 -11.35,-10.7 m -9.22,15.9 c -1.66,15.1 -1.49,30.6 -3.96,45.7 2.64,2.7 7.6,2.8 6.6,-2.1 -1.44,-14.1 3.63,-32.8 -2.64,-43.6 m 183.06,2.5 c -8.01,-1.6 -11.25,3.2 -12.38,10.4 7.73,-8.3 30.06,-6.6 24.25,9 -4.05,4.3 4.39,9.5 -2.94,10.6 -0.21,5.9 -1.61,14.1 2.55,19 4.99,4.2 -3.71,10.4 -2.75,1.2 -14.22,1.3 -5.87,-20.8 -20.06,-14.9 4.57,5 4.07,22.7 -6.03,16.3 -2.64,-16.8 -20.49,-32.4 -37.63,-24.2 -22.34,7.9 -26.03,38.1 -16.89,57 6.39,2.7 14.02,-3.4 20.92,-0.3 11.3,0.8 15.56,13.3 19.89,21.3 10.62,-5.4 17.86,-17.4 20.79,-28.8 -19.1,1 -38.38,7.5 -57.42,2.5 -9.85,-5.2 6.61,-22.1 9.23,-6.7 20.89,-2.2 41.52,-7.2 62.18,-11 6.9,-0.6 12.7,-11.1 20.01,-5.8 -3.36,-3.4 1.48,-3.2 2.04,-6.2 -4.53,1.5 -6.25,-2 -6.48,-5.5 -1.33,-13.6 -1.99,-27.5 -2.17,-41.1 -5.69,-0.9 -11.38,-2.2 -17.11,-2.8 m 71.1,5.9 c -4.69,1.5 -9.42,2.9 -14.16,4.3 -2.31,14.1 1.75,29.3 -0.93,43.2 4.78,-2 14.79,-0.4 12.97,-8.1 -1.04,-12 6.1,-31.4 2.12,-39.4 m -27.4,1.5 c 3.71,10.9 -1.62,25.2 5.78,34.2 -0.19,-11 5.52,-30.4 -5.78,-34.2 m -7.24,1.2 c -2.79,4.8 -2.15,11.5 -8.87,14.6 1.57,7.6 -3.05,22.1 8.16,23.6 0.06,5 -6.98,6.8 1.97,7.3 3.76,-12.9 4.13,-35 -1.26,-45.5 m 239.62,15 c -0.91,3.4 -6.69,9.3 -2.28,11.6 1.38,-3.2 6.44,-9.5 2.28,-11.6 m -461.72,26.3 c -11.18,2.9 -26.95,8.8 -26.05,23 -0.93,12.1 -0.51,24.4 1.46,36.4 0.79,3.6 5.76,4.4 6.95,0.6 -0.55,-17.2 -4.49,-40.6 13.06,-51.6 2.6,-2 15.18,-10.2 4.58,-8.4 m 249.18,9.9 c -13.58,2.7 -8.53,21.1 -7.99,31.6 3.79,-4.9 15.62,0.2 15.28,-6.7 -13.9,-2.4 2.88,-25.4 -7.29,-24.9 m -50.17,6.1 c -11.35,12 -4.34,34.7 -4.89,50.7 -2.44,9.8 10.96,6.4 12.93,3.3 -14.23,-8.2 -1.98,-25.5 -6.86,-38.1 -2.52,-4.2 4.23,-16 -1.18,-15.9 m 20.75,6.6 c -0.93,14.3 -12.9,29.1 -6.54,42.7 9.14,-5 10.88,-19 9.9,-28.5 -0.25,-4.7 3.3,-14.1 -3.36,-14.2 m 9.07,9.1 c 0.01,5.1 -0.61,10.5 0.85,15.5 7.96,0.4 6.36,-18.1 -0.85,-15.5 m -101.07,8.2 c -22.53,3.7 -16.93,36.5 2.75,39.4 22.98,0.8 18.09,-38.4 -2.75,-39.4 m 48.35,22 c -6.48,3.1 -11.08,9 -15.92,14.1 4.95,-0.2 9.9,2.1 14.77,1.1 2.09,-4 4.06,-12.8 1.15,-15.2 m 36.04,12.2 c -19.81,11.7 -42.91,7.6 -64.47,8.8 -11.94,7.5 -29.34,2.6 -39.03,15.7 1.13,4.5 4.94,5.9 7.4,1.4 25.25,-21.1 60.05,-6.2 88.54,-19.4 2.72,-0.6 12.59,-5.8 7.56,-6.5 M 440,1486.8 c -6.96,2 -17.29,0.9 -19.98,9.3 -6.2,12.9 0.88,27.1 -2.52,40.5 -1.48,3.6 -0.74,16.4 4.51,9.1 2.91,-12.9 0.21,-27.2 3.13,-40.4 3.67,-10.9 16.42,-16.9 27.43,-16.9 -0.72,-4.2 -8.71,-1.9 -12.57,-1.6 m 199.34,9.5 c -2.52,3.9 -2.55,10.7 -1.22,15.6 6.39,-0.4 10.24,-17.7 1.22,-15.6 m -112.47,4.2 c -27.1,5.5 -7.08,45.2 14.23,31.7 11.99,-11.5 4.25,-36.8 -14.23,-31.7 m -71.88,5.7 c -1.37,25.5 0.42,51.3 -0.75,76.6 -7.06,6.2 -0.8,13.1 8.26,9.6 -2.37,-26.5 -0.64,-53.5 -1.33,-80.2 2.99,-5 -2.82,-7 -6.18,-6 m 166.69,4.4 c -9.21,4.1 -19.69,1.8 -29.48,1.7 -14.74,1.4 -34.66,6.8 -31.98,25.9 16.97,-13.6 42.81,-18.2 60.15,-2.6 4.99,-3.3 3.44,-22.3 1.31,-25 m 17.5,17.4 c -3.04,12.8 4.33,28.6 -2.97,40.2 -0.27,7.7 0.23,17.3 9.81,10.5 -2.01,-15.8 -2.14,-31.8 1.64,-47.4 -2.71,-1.4 -5.37,-3.1 -8.48,-3.3 m 16.64,2.1 c 0.98,6.9 1.27,13.7 0.76,20.6 9.3,-1.1 12.31,-21.7 -0.76,-20.6 m 19.55,9.2 c -9.8,8 -1.75,23.5 -0.13,34 4.33,-8.2 -2.14,-20.5 3.61,-29.2 2,-2.2 -0.73,-6.2 -3.48,-4.8 m 11.69,7.8 c 0.41,17.5 -1.55,35.2 1.3,52.5 -0.16,7 7.86,12.7 13.36,10.9 -3.11,-2.1 -6.76,-5.3 -3.52,-9.2 8.34,-3.3 18.72,-1.1 25.98,-7.4 -12.47,-3.4 -2.43,-19.5 -2.39,-28 0.23,-7.1 11.64,-0.4 11.79,-5.7 -16.72,0.3 -30.06,-12.1 -46.52,-13.1 m 50.51,12.3 c -6.99,0.1 5.88,4.2 0.98,8.2 -1.3,9.1 -13.94,12.7 -11.46,22.9 11.77,-5.3 17.14,-19.2 17.67,-31.5 -2.41,0 -4.81,0.1 -7.19,0.4 m -75.32,2.9 c -6.44,-0.3 -6.26,9.3 -3.05,12.6 7.18,0.6 6.28,-10.1 3.05,-12.6 m -224.94,33 c -7.26,-0.8 -10.74,12.4 -2.56,13.1 7.14,3.9 9.96,-14.4 2.56,-13.1 m 17.03,4.8 c -5.79,3.5 1.55,9.2 5.59,9.9 15.11,12.9 28.15,29.2 45,40 13.02,-5.3 3.01,-19.3 -3.19,-25.8 -14.71,-9.6 -29.11,-22.6 -47.4,-24.1 m 279.32,4.4 c -3.18,2.2 -8.75,2.3 -9.83,6.4 4.75,-0.2 16.27,-2 9.83,-6.4 m -86.28,17.8 c -1.43,0.2 -2.79,0.7 -4,1.4 -2.38,20.1 4.2,40.1 0.58,60.1 1.83,2.3 7,3.6 6.04,-1 -2.1,-18.5 3.92,-45.2 -2.62,-60.5 m 17.17,5.8 c -9.86,5.4 -2.71,19.4 -5.4,28.4 12.52,0.1 6.06,-23.8 5.4,-28.4 m -36.45,12.4 c -5.47,3.2 -11.41,5.6 -17.05,8.4 8.94,2.8 16.44,8.4 23.51,14.3 -0.2,-7 4.71,-22.5 -6.46,-22.7 m -52.6,9.6 c -5.58,2.9 -4.09,11.6 -10.5,13 28.43,-5.2 35.51,31.7 21.16,49 16.32,1.5 30.91,-6.7 47,-7.7 4.9,-5.7 3.66,-14.8 -1.68,-19.9 -3.64,-16.2 -18.94,-25.4 -33.62,-30.2 -6.66,1.3 -12.6,5.4 -19.54,5.5 -4.08,-5.7 9.29,-9.6 -2.82,-9.7 m 87,14.1 c -8.2,3.8 1.14,12.3 7.2,6.8 2.86,-4.9 10.89,3.1 10.98,-2.7 -6.19,-0.8 -12.13,-2.7 -18.18,-4.1 m -94.99,5.2 c -14.04,6.9 -15.86,33.2 0.83,38.5 22.92,1.5 19.21,-38.4 -0.83,-38.5 m 108.8,8.8 c -7.65,12.9 9.9,31.4 -6.1,41.2 4.08,8.7 13.98,18 6.65,29.3 -7.44,2.3 -13.7,7.2 -19.89,11.9 2.98,11.7 -4.98,25.1 2.8,35.6 7.57,4.2 17.36,14.8 20.11,-0.4 -3.79,-6.4 -2.02,-11.6 2.91,-16.9 -3.39,-30.4 -0.93,-60.8 -1.31,-91.2 -0.65,-3.7 0.46,-11.6 -5.17,-9.5 m -13.97,10.1 c -6,1.4 -6.71,9.1 -6.4,14.1 5.96,1.3 16.02,-13.2 6.4,-14.1 m -189.74,18.2 c -7.21,2.6 -13.97,8 -8.75,16.4 8.33,-2.4 16.96,-3.8 25.5,-2.5 7.92,0.4 7.98,-6.7 2.42,-9.4 -0.7,5.6 -7.1,8.7 -12.03,5.6 -0.29,-4 -2.49,-11.7 -7.14,-10.1 m 192.95,1.8 c -4.37,1.4 -8.71,4.7 -4.97,9.1 2.21,0.7 10.9,-9.6 4.97,-9.1 m -35.45,2.2 c -18.92,4.7 -37.97,5.5 -56.89,10.1 4.59,0.9 8.68,5.2 13.58,2.4 17.04,-3.9 34.61,-5.6 50.94,-12.2 0.37,-2.2 -5.68,0.2 -7.63,-0.3 m -182.27,2.3 c -3.8,4.9 -0.6,13.1 6.03,11.9 0.53,-4.9 -1.53,-9.7 -6.03,-11.9 m 98.94,0.1 c 2.28,21.1 4.68,46.3 23.99,59.3 8.47,8.6 20.7,6.7 31.4,5.2 18.49,-7.8 27.81,-27.2 32.5,-45.6 -17.48,2 -33.42,12.3 -51.03,12.6 -14.65,1.5 -11.5,-20 -24.87,-21.1 -6,-0.8 -9.16,-5.8 -11.99,-10.4 m 111.5,10.3 c -7.37,2.6 2.46,18.2 6.7,11.7 -1.84,-3.6 -2.26,-11.6 -6.7,-11.7 m -177.66,3.4 c -6.04,10 -10.46,-2.8 -17.33,3.6 -12.84,17 -7.58,39.2 -5.58,58.6 -4.14,8.6 6.28,14.5 8.22,22.2 12.23,16.1 43.19,7.4 42.99,-13.7 -13.21,-2.4 -27.06,-2.2 -38.69,-9.7 -1.22,-2.7 1.74,-4.6 3.98,-2.9 11.39,6.2 25.3,1.9 36.17,9 1.33,-2.4 3.8,-11.8 -2.83,-11.3 -15.1,-0.4 -28.52,-7 -42.12,-12.8 -11.12,-6 -1.99,-19.1 6.72,-21.6 14.06,-5 27.79,4.4 40.87,7.8 2.32,-18.8 -14.35,-33.4 -32.4,-29.2 m 165.83,0.6 c -2.99,1.1 -6.66,2.8 -3.85,6.9 6.53,16.5 -2.35,35.9 4.67,52.2 2.49,-12.8 -1.73,-26.8 2.35,-39.9 -1.61,-4.8 5.29,-20.5 -3.17,-19.2 m -171.07,26.3 c -3.06,1.2 -7.54,1.8 -9.34,4.5 13.45,5 27.44,8.9 41.52,10.7 5.39,1.5 8.8,-9.4 0.9,-7.2 -12.23,1.9 -21.17,-8.3 -33.08,-8 m 158.94,22.7 c -3.49,6.4 3.48,15.5 -1.13,22.7 7.3,-3.2 6.61,-22 1.13,-22.7 m 53.55,11.1 c -5.73,22.5 23,14.5 34.76,21.2 1.26,16.7 5.14,-8 13.24,-1.5 -1.83,5.9 -2.38,12.2 -4.75,18 11.27,8.5 27.01,3.2 39.89,5.5 33.88,3 68.17,-5.7 100.96,-9.5 6.39,7 10.45,-9.2 1,-5.1 -29.14,9.4 -60.2,5.6 -90.24,8 -14.79,-0.3 -31.88,2 -44.57,-7.2 -2.96,-2.1 0.19,-6.4 3.26,-5.3 32.28,1.9 64.7,-0.3 96.78,-2.3 3.2,-3.3 3.71,-8.7 7.29,-11.9 13.51,-5.3 23.2,14.8 35.71,0.6 -4.38,-15.8 -18.95,-2.1 -29.87,-3.7 -54.29,0.9 -110.38,8.2 -163.46,-6.8 m -71.32,3.1 c -30.51,6.5 -62.11,5.8 -93.14,4.8 -2.49,2.7 -5.94,11.6 1.26,9.1 30.66,3.3 61.96,0.9 91.52,-7.9 2.15,-1.8 5.82,-8.6 0.36,-6 m 27.93,6.8 c -5,2.1 -0.43,9.2 4.1,7.8 -0.43,-2.6 -0.24,-8.6 -4.1,-7.8 m -218.18,12.1 c -20.45,5.8 -12.94,33.7 -6.28,46.6 4.24,-11.2 3.83,-26 7.74,-38.2 -0.16,-1.9 3.47,-9.7 -1.46,-8.4 m 204.04,-0.1 c -13.09,11.3 11.65,10.2 11.23,22.2 2.66,-2 3.85,-11 5.28,-15.5 -6.64,0.4 -10.96,-5 -16.51,-6.7 m -191.8,1.1 c -7.03,18.6 -8.7,41.3 -12.57,61.4 -3.48,1.9 -1.2,10.4 2.2,5.4 4.63,-5.9 10.44,3.5 16.03,1.5 -0.89,-21.2 1.58,-42.4 1.86,-63.6 3.81,-7.7 -4.92,-4.2 -7.52,-4.7 m 177.64,2.2 c -34.39,7.2 -69.97,6.7 -104.84,4.7 -2.76,2.6 -7.28,5.6 -6.95,9.7 12.75,1.7 25.59,-1.6 38.37,0.4 25.61,2.4 50.84,-6.8 76.35,-4.5 -0.8,-3.3 -1.46,-8.5 -2.93,-10.3 m 70.79,0.1 c -0.16,8.8 17.13,11 24.85,12.3 -0.62,-11.4 -16.92,-8.3 -24.85,-12.3 m -233.88,0.5 c -1.13,9 -1.63,20.9 1.85,28.2 0.48,-8 8.54,-24.8 -1.85,-28.2 m 214.33,5.2 c -4.69,2.5 -8.96,5.9 -13.31,9 -2.84,17.5 5.14,34.1 6.85,50.5 -6.66,10.6 -13.29,-3.2 -14.89,-9.8 -12.58,-5.9 -13.52,-19.9 -19.44,-30.7 -4.61,-3.9 -9.55,1.9 -6.86,6.6 -6.3,11.5 3.58,25.5 10.79,34.5 6,5.3 7.47,-4.5 12.15,-4.1 3.63,13.2 -3.76,38.8 12.22,45.7 21.35,-23.9 21.4,-59.8 20.62,-90.6 2.38,-5.6 -2.56,-11.7 -8.13,-11.1 m -203.52,5.1 c -0.93,8.3 -0.48,16.9 -3.44,24.8 -5.48,0.5 -1.19,9.9 -1.36,14.7 14.77,-2.1 7.98,-19.3 12.96,-29 3.92,-6 -6.44,-7.1 -8.16,-10.5 m 224.56,11.8 c -2.71,6.4 10.41,4.6 8.51,10.6 -0.18,4 -6.75,0.8 -8.51,2.8 -1.09,22.9 -4.52,46 -13.91,67 -3.3,10 8.77,8.8 14.48,6.7 18.12,-18.6 18.09,-47.5 10.26,-70.6 -0.93,-6.2 5.6,1 6.49,3.5 9.8,23.5 5.76,54.3 -13.35,72.3 -9.38,4 -22.1,-1.6 -28.74,8.3 -10.42,12.8 -31.54,5.8 -38.7,-6.8 -7.37,-11.5 0.08,-25.5 -3.05,-37.5 -9.61,-8.1 -20.35,-18.4 -18.99,-32.2 -2.26,-5.7 6.81,-9.9 3.13,-15.1 -38.97,7.6 -78.48,1.3 -117.85,1 -4.44,6.3 1.82,16.4 -5.01,21.9 -1.93,2.9 -12.46,7.5 -5.52,10.2 22.27,4.9 33.9,33.5 23.71,53.3 -1.77,4.9 0.78,9.6 4.35,13.1 3.77,6.4 -7.22,5.4 -5.05,10.5 5.75,-1.1 12.56,-17.3 20.63,-12.9 -1.99,8.8 -10.47,16.2 -14.09,24.9 2.26,10 11.56,15.1 20.06,18.6 -0.61,-20.1 -4.63,-41.4 2.71,-60.8 8.64,-17.1 33.01,-20.1 40.76,-37.4 4.66,-2.2 8.06,4.6 12.94,4.1 2.13,-4.4 5.16,-8.7 6.01,-13.5 -8.14,-2 -25.98,-7.2 -27.79,6.7 0.47,8.3 -14.76,8.5 -10.22,-1 9.91,-16.7 32.9,-15.2 49.12,-11.8 5.85,17.4 -9.59,33.6 -20.94,45 -11.84,0.6 -21.82,6.3 -31.25,13.1 12.79,5.6 27.9,3.2 40.44,10.6 29.1,15 36.93,51.2 30.13,81 13.17,-0.1 25.4,-8.8 39.08,-5.5 3.75,6.2 13,7.9 9.38,19.3 11.67,-1.1 23.5,3.9 34.78,-1 34.6,-8.4 60.37,-41.5 62.26,-76.9 1.3,-5.1 0.87,-21.4 9.62,-16 5.03,8.5 0.65,20.2 2.4,29.1 2.04,-7.4 0.5,-26.7 12.58,-21.2 8.98,19.8 -8.2,39.8 -14.69,58 -5.27,8.8 -25.33,25.4 -8.59,30.3 14.09,-9.9 27.44,-21.6 36.5,-36.4 4.14,-2.5 6.18,-15.9 10.48,-8.6 21.77,-45 27.06,-97.3 27.51,-147.3 -0.62,-3.9 -5.75,-2.6 -8.27,-2.4 0.53,27 -0.32,54.4 -6.3,80.8 -2.99,14.7 -3.11,32.3 -15.22,42.8 -7.26,-14.6 -6.37,21.8 -12.29,19.7 -7.74,7.3 -11.69,24.3 -23.6,29.1 4.22,-14 14.98,-25.6 18.58,-40.2 3.37,-6.8 1.51,-16.4 8.16,-21.3 6.42,-3.2 4.37,5.4 8.4,5.8 6.03,-37.8 14.29,-77 9.51,-115.1 -44.13,5.2 -88.51,2.1 -131.04,-8.6 m 180.28,2.3 c -3.32,0.8 -8.88,1.9 -6.16,7.1 0.11,27.3 -2.48,54.9 -8.59,81.4 -2.14,12 -9.93,22.9 -8.55,35.3 -8.31,15.1 -14.28,31.5 -24.77,45.3 -14.83,11.1 -22.89,29.8 -40.65,37.4 -43.97,31.6 -102.01,31.1 -152.19,18.9 -8.97,-7.7 3.1,-16 11.19,-13.2 9.63,-0.3 5.42,-12.1 7.63,-18 2.61,-9.5 -11.76,-7.7 -16.17,-3.2 -4.27,9.7 -20.27,-6 -16.87,10 6.04,-2.2 17.18,-6.4 19.37,2.4 -11.06,13.8 -31.5,22.2 -48.58,16.3 -11.36,6 7.39,17 8.95,7.2 15.2,-1.6 28.24,8.4 42.76,10.9 54.84,11.1 117.69,5.7 163.59,-29.6 60.95,-48.8 81.9,-134.5 76.21,-208.6 -2.41,-0.3 -4.8,-0.2 -7.17,0.4 m -416.37,46.9 c -8.39,2.7 -14.85,10 -25.22,5.7 2.6,15.5 4.28,31.2 8.14,46.5 4.06,13.5 21.72,21.6 34.16,14 5.35,1 12.06,-0.8 6.08,-6.2 -23.43,8.2 -45.24,-29.5 -30.09,-47.3 0.1,-5.1 13.47,-8.5 6.93,-12.7 m 16.98,6.1 c -3.82,-0.8 -7.63,4.3 -2.95,6.1 8.28,3.9 12.82,13.3 19.66,18.2 4.27,-11 -6.18,-23.7 -16.71,-24.3 m -16.83,10 c -9.44,8.9 3.82,19.4 13.34,12.4 -1.06,-6.1 -8.05,-11.6 -13.34,-12.4 m 21.56,12.5 c 4.86,17.9 11.04,38.1 22.87,52.1 -7.7,-17.2 -10.37,-38.1 -22.87,-52.1 m -6.79,4.2 c -2.15,4.2 -7.14,5 -10.27,8 1.24,7.2 8.35,12.6 15.76,11.5 -0.38,-6.6 -1.98,-13.9 -5.49,-19.5 m 377.11,23.2 c -4.18,1 -5.93,10.6 -1.61,11.4 0.31,-3.5 1.9,-9.8 1.61,-11.4 m -300.42,1.3 c -3.69,0.3 -8.64,-0.5 -7.54,5.4 0.3,22.7 0.29,45.5 2.91,68.1 2.03,3.5 6.95,10 10.04,4.1 5.83,-5.9 -10.23,-5.9 -5.84,-12.6 7.13,-9.1 20.32,2.5 18.07,11.7 -0.1,4.9 -9.15,8.3 -4.17,13.1 9.35,3.2 16.79,12 26.92,12 6.31,-13.3 10.84,-28.1 7.65,-43 0.62,-26.4 -16.97,-63.7 -48.04,-58.8 m 39.05,5.2 c 9.62,12.6 17.25,27 18.95,43 4.12,-0.6 8.93,-3.3 6.3,-8.1 -4.99,-13.1 -9.8,-30.8 -25.25,-34.9 m 192.39,25.5 c -4.26,5.6 -5.74,13.2 -8.51,19.6 5.58,-4 8.11,-15.8 8.51,-19.6 m -249.09,13.9 c -6.71,7.7 -17.76,8.2 -25.3,1.8 -2.19,9.7 -0.02,19.8 1.07,29.5 5.49,0.8 13.71,-11.4 16.87,-3.9 -17.11,11.1 -35.67,20 -52.01,32.3 -2.64,2 2.08,3.3 3.71,2.9 18.59,-10 37.81,-19.8 55.14,-31.4 0.09,-9.4 1.68,-24 0.52,-31.2 m 75.33,11.2 c 1.08,4.3 -0.04,9.8 2.08,13.3 7.99,-0.4 7.2,-17.6 -2.08,-13.3 m 161.75,1.8 c -4.97,11.5 -15.31,19.9 -21.17,29.7 13.23,-3.2 20.28,-19.1 21.17,-29.7 m -228.21,30.2 c -7.35,4.9 -16.78,8.5 -22.11,15.5 11.71,20.5 44.5,26 60.91,9.8 -11.77,-7.7 -27.66,-15.9 -38.8,-25.3 m 215.28,3.9 c -2.59,5.6 -7.79,8 -12.93,11.3 1.84,7.3 24.65,-9.8 12.93,-11.3 z"
         style="fill:#aa4400;fill-opacity:0.685279" /><path
         id="path6"
         d="m 446.36,488.56 c 5.75,-4.19 4.35,5.53 5.6,8.87 -0.23,28.15 2.24,56.42 -0.92,84.48 0.06,2.75 -2.83,1.13 -4.44,1.03 -3.01,-31.03 -0.01,-63.03 -0.24,-94.38 z"
         style="fill:#aa4400;fill-opacity:0.685279" /><path
         id="path8"
         d="m 499.44,595.23 c 5.99,-1.56 11.13,11.32 3.78,12.95 -7.25,1.68 -4.8,10 -5.75,15.5 -12.51,3.26 0.21,-19.56 -14.96,-15.25 -2.67,-13.6 16.79,1.05 16.93,-13.2 z"
         style="fill:#aa4400;fill-opacity:0.685279" /><path
         id="path10"
         d="m 481.5,1013.2 c 13.19,1.3 -8.37,8.1 0,0 z"
         style="fill:#aa4400;fill-opacity:0.685279" /><path
         id="path12"
         d="m 799.37,1068.6 c 5.35,2.4 17.5,-5.4 16.55,3.6 12.4,6.2 27.39,-0.1 37.95,11.8 17.38,18 17.08,47.3 11.56,70.5 -1.83,3.1 2.32,6.8 5.04,4.8 5.54,-17.6 1.32,-36.1 8.68,-53.1 2.93,0.8 2.77,5.4 6.56,1.4 12.29,1 30.58,11.4 23.09,26.3 -0.98,15.5 -10.76,28.8 -13.62,43.7 6.45,5 14.22,8.7 21.71,12.2 4.97,-9.8 10.62,-22.2 20.12,-27.6 1.66,9.8 -24.92,28.1 -7.98,35.5 8.38,-18.2 22.91,-38.3 44.19,-43.4 14.12,1.8 25.66,17.7 37.48,20.2 24.4,14.3 42.7,37.7 59.5,60.5 3.5,8.5 -3.6,21.6 -13,20.7 -38.3,3.9 -73.4,-16.3 -105.98,-33.9 -19.73,-8.3 -36.16,-22.5 -55.51,-31.5 -17.85,-8.4 -31.78,-23.5 -50.02,-30.9 -19.09,-23.1 -49.35,-42.3 -53.53,-74.9 5.73,-4.2 4.55,-13.3 7.21,-15.9 z"
         style="fill:#aa4400;fill-opacity:0.685279" /><path
         id="path14"
         d="m 643.32,1106.4 c 7.48,6.5 -8.47,20.7 -16.17,12.4 1.34,-8.9 8.94,-10.3 16.17,-12.4 z"
         style="fill:#aa4400;fill-opacity:0.685279" /><path
         id="path16"
         d="m 806.38,1339.3 c 3.55,-1.3 0.89,3.7 0.83,5.7 -15.2,57.7 -19.73,117 -22.51,176.5 -2.01,2.2 0.65,11 -3.83,10.4 0.89,-64.3 1.13,-132.6 25.51,-192.6 z"
         style="fill:#aa4400;fill-opacity:0.685279" /><path
         id="path18"
         d="m 842.17,1350.1 c 7.16,-0.2 2.06,8.7 0.17,12.4 -4.13,4.7 0.64,17.2 -7.24,17.6 1.08,-10.3 3.3,-20.4 7.07,-30 z"
         style="fill:#aa4400;fill-opacity:0.685279" /><path
         id="path20"
         d="m 879.36,1354.8 c 0.99,1.2 3,1.6 5.47,-0.8 -2.42,8.8 -4.89,13.8 -6.61,22.2 -2.89,-7.4 -3.15,0.8 0.42,3.9 -3.09,6.5 -6.48,15.4 -7.31,21.7 -7.83,-10.2 2.39,23.8 -8.37,13.3 -17.65,57.9 -25.94,118.5 -30.45,178.4 -2.11,1.1 -6.97,0.1 -3.32,-4.3 1.72,-50.4 8.01,-100.7 21.49,-149.6 6.63,-25.4 10.91,-53.4 21.42,-76.2 5.58,3.9 6.6,-4.9 7.26,-8.6 z"
         style="fill:#aa4400;fill-opacity:0.685279" /><path
         id="path22"
         d="m 851.34,1357.1 c 11.17,-0.5 -2.92,27.7 -5,14.3 2.38,-4.5 0.89,-10.7 5,-14.3 z"
         style="fill:#aa4400;fill-opacity:0.685279" /><path
         id="path24"
         d="m 863.41,1359 c 4.51,4.5 -0.15,13.7 -2.06,19.4 -2.43,4.1 -0.6,13.2 -7.08,12.4 -2.76,-11.2 2.19,-23.4 9.14,-31.8 z"
         style="fill:#aa4400;fill-opacity:0.685279" /><path
         id="path26"
         d="m 535.56,1401.2 c 5.61,-1.4 2.54,5 0.58,7.2 -4.03,16.9 -0.02,34.4 2.64,51.3 -7.12,2.1 -7.79,-8.9 -8.46,-13.2 -1.37,-14.9 -6.38,-33.7 5.24,-45.3 z"
         style="fill:#aa4400;fill-opacity:0.685279" /><path
         id="path28"
         d="m 837.37,1431.1 c 3.01,-1.3 3.62,2.5 3.34,4.7 -3.08,20.2 -10.11,40.2 -12.36,59.8 -4.8,16.6 -1.75,35.3 -5.73,52.3 -7.03,0.4 -3.65,-9.1 -4.26,-13.6 2.68,-34.5 1.55,-72.4 19.01,-103.2 z"
         style="fill:#aa4400;fill-opacity:0.685279" /><path
         id="path30"
         d="m 692.34,1553.9 c 7.73,2.1 18.14,0 23.24,7.7 -3.27,10.3 -1.63,21.2 -0.68,32 -3.72,3.9 -11.31,1.7 -16.04,2.8 -11.31,-10.3 -7.88,-28.9 -6.52,-42.5 z"
         style="fill:#aa4400;fill-opacity:0.685279" /><path
         id="path32"
         d="m 819.41,1563.3 c 4.06,3.9 5.66,22.7 -3.81,24.5 -0.49,-8.2 0.75,-17.3 3.81,-24.5 z"
         style="fill:#aa4400;fill-opacity:0.685279" /><path
         id="path34"
         d="m 806.53,1578.6 c 5.67,6.5 0.79,23.8 1.5,32.3 -2.64,-11.1 -5.14,-19.8 -1.5,-32.3 z"
         style="fill:#aa4400;fill-opacity:0.685279" /><path
         id="path36"
         d="m 816.16,1591.3 c 3.8,-1.1 4.35,4.8 3.53,7.1 -0.97,11.8 -0.01,24 -3.51,35.4 6.64,12.6 -0.69,27.1 2.13,40.3 1.03,2.7 1.8,9.6 -2.43,9.9 -2.23,-30.8 -3.91,-63.6 0.28,-92.7 z"
         style="fill:#aa4400;fill-opacity:0.685279" /><path
         id="path38"
         d="m 829.14,1599 c 5.42,6.4 2.88,24.6 -0.44,34 -5.31,-9.8 0.68,-22.8 0.44,-34 z"
         style="fill:#aa4400;fill-opacity:0.685279" /><path
         id="path40"
         d="m 810.39,1633.5 c 3.29,-0.9 0.97,4 -0.95,4.6 -0.94,13.6 1.72,27.7 -2.55,41 0.56,-6 -3.76,-10.9 -5.48,-3.6 4.83,19.7 -3.37,39.6 0.18,59.3 -3.04,7.8 4.06,24.6 -4.57,28.1 -4.44,-25.2 -0.98,-51.2 -3.68,-76.7 0.67,-11.4 -2.01,-24.5 4.39,-34.6 4.95,-3 4.75,5 6.67,7.1 5.67,-5.3 -7.37,-24.5 5.99,-25.2 m -7.37,27.3 c -1.14,3 -1.56,9.8 2.97,9 -0.03,-3.2 0.69,-7.8 -2.97,-9 z"
         style="fill:#aa4400;fill-opacity:0.685279" /><path
         id="path42"
         d="m 827.31,1637.9 c 0.67,0.1 2,0.3 2.67,0.3 -1.63,47.8 -4.21,95.7 -0.07,143.5 -0.77,5.2 -3.93,-0.1 -4.1,-2.8 -6.17,-44 -1.25,-88.6 -1.22,-132.8 0.09,-2.8 0.6,-6.1 2.72,-8.2 z"
         style="fill:#aa4400;fill-opacity:0.685279" /><path
         id="path44"
         d="m 719.29,1644.9 c 3.33,1.2 1.4,6.1 2.2,8.9 -0.49,33.8 -0.12,67.9 -4.55,101.4 -5.18,-29.7 -0.07,-63.2 -0.57,-94.3 0.08,-5.2 -1.5,-12 2.92,-16 z"
         style="fill:#aa4400;fill-opacity:0.685279" /><path
         id="path46"
         d="m 786.41,1645.1 c 5.8,-1.1 2.37,8.4 2.9,11.2 1.16,28.3 -2.81,56.4 0.78,84.7 -0.15,2.7 0.7,14.4 -4.6,11.3 -3.01,-28.3 -4.92,-56.7 -5.04,-85.1 1.76,-7.2 -0.68,-17 5.96,-22.1 z"
         style="fill:#aa4400;fill-opacity:0.685279" /><path
         id="path48"
         d="m 529.55,1866.3 c 10.96,-2.8 14.07,17.5 3.35,18.9 -6.44,2.8 -12.63,-0.6 -16.88,-5.4 3.55,-9.2 12.56,-4.7 13.53,-13.5 z"
         style="fill:#aa4400;fill-opacity:0.685279" /><path
         id="path50"
         d="m 872.28,1876.3 c 5.82,6.4 -0.33,22.4 -3.54,31.7 -3.5,-9.9 1.91,-22.6 3.54,-31.7 z"
         style="fill:#aa4400;fill-opacity:0.685279" /><path
         id="path52"
         d="m 782.17,1917.2 c 7.66,0.6 2.91,20.4 -4.04,14.4 -2.4,-4.8 -1.69,-12.4 4.04,-14.4 z"
         style="fill:#aa4400;fill-opacity:0.685279" /><path
         id="path54"
         d="m 797.37,1919.2 c 7.05,0.1 1.66,11.3 3.13,16.5 -9.94,3.7 -13.29,-15.7 -3.13,-16.5 z"
         style="fill:#aa4400;fill-opacity:0.685279" /><path
         id="path56"
         d="m 806.3,1924.2 c 4.96,-2.6 7.36,6.8 2.46,7.5 -3.68,1.8 -5.46,-6.6 -2.46,-7.5 z"
         style="fill:#aa4400;fill-opacity:0.685279" /><path
         id="path58"
         d="m 728.26,1965.4 c 4.06,-0.4 4.92,6.1 5.46,9.4 -7.53,20 -27.49,30.9 -45.59,39.8 -5.48,2.9 -10.4,-2.1 -10.01,-7.3 14.38,-10.3 31.38,-19 39.76,-35.4 1.91,-4 6.38,-5.5 10.38,-6.5 z"
         style="fill:#aa4400;fill-opacity:0.685279" /><path
         id="path60"
         d="m 784.44,2009 c 4.65,3.1 -1.73,10.6 -4.79,12.6 -2.25,-3.8 1.57,-9.7 4.79,-12.6 z"
         style="fill:#aa4400;fill-opacity:0.685279" /></g></g></svg>
